<svg width="1024" height="512" xmlns="http://www.w3.org/2000/svg">
<g xmlns="http://www.w3.org/2000/svg">
  <title>Layer 1</title>
  <path stroke="null" id="svg_1" d="m377.44704,175.59527c-1.49249,-6.79435 -5.29867,-12.93812 -10.72012,-17.29761s-12.23812,-6.76086 -19.19512,-6.76086l-0.06857,0l-1.0811,-4.92714c-1.5786,-7.18661 -5.60482,-13.68437 -11.3388,-18.29579c-5.73238,-4.60983 -12.94131,-7.14994 -20.30013,-7.14994l-129.74322,0l0,6.12943c0,10.38686 4.27019,19.79307 11.14426,26.56031l0,4.59867c0,10.95292 4.74855,20.81676 12.29234,27.6446l0,3.51278c0,20.56004 16.72836,37.2884 37.2884,37.2884l4.03738,0c4.66085,13.97936 17.86367,24.08877 33.38974,24.08877l110.84788,0l-16.55296,-75.39161zm-155.991,20.14387l64.73049,0l0,-12.25885l-52.75388,0c-11.68641,0 -21.52953,-8.05245 -24.27055,-18.89853l64.73209,0l0,-12.25885l-51.6058,0c-11.68801,0 -21.52953,-8.05244 -24.27055,-18.90012l116.72536,0c9.3823,0 17.65319,6.65244 19.66551,15.81628l14.35886,65.4002l-103.04259,0c-11.68641,0 -21.52793,-8.05244 -24.26895,-18.90012zm41.63991,31.15897l100.91547,0l-13.81194,-62.89996c7.41941,1.10661 13.63175,6.74652 15.27413,14.22652l13.28414,60.50495l-95.60564,0c-8.61851,-0.00159 -16.13997,-4.78363 -20.05617,-11.83151zm0,0"/>
  <g stroke="null" id="svg_6">
   <path stroke="null" id="svg_5" d="m604.92688,175.37661c1.48615,-6.78537 5.27614,-12.92104 10.67453,-17.27476s12.18608,-6.75193 19.11349,-6.75193l0.06827,0l1.0765,-4.92063c1.57189,-7.17712 5.58099,-13.6663 11.29058,-18.27162c5.70801,-4.60374 12.88628,-7.14049 20.21381,-7.14049l129.19148,0l0,6.12133c0,10.37314 -4.25203,19.76692 -11.09687,26.52523l0,4.59259c0,10.93845 -4.72836,20.78927 -12.24006,27.60808l0,3.50814c0,20.53289 -16.65722,37.23915 -37.12983,37.23915l-4.02021,0c-4.64103,13.9609 -17.78771,24.05695 -33.24775,24.05695l-110.3765,0l16.48256,-75.29203zm155.32765,20.11726l-64.45523,0l0,-12.24266l52.52954,0c11.63671,0 21.43797,-8.04181 24.16733,-18.87357l-64.45681,0l0,-12.24266l51.38635,0c11.6383,0 21.43797,-8.04181 24.16733,-18.87516l-116.22899,0c-9.3424,0 -17.57812,6.64365 -19.58188,15.79538l-14.2978,65.31382l102.6044,0c11.63671,0 21.43638,-8.04181 24.16575,-18.87516zm-41.46284,31.11782l-100.48632,0l13.7532,-62.81688c-7.38786,1.10515 -13.57378,6.7376 -15.20918,14.20773l-13.22765,60.42503l95.19907,0c8.58186,-0.00159 16.07133,-4.77731 19.97088,-11.81588zm0,0"/>
  </g>
  <g stroke="null" id="svg_14">
   <g stroke="null" transform="matrix(0.44118869337387545,0,0,0.44118869337387545,-1426.1843449358967,-906.0339706141235) " id="svg_11">
    <path stroke="null" id="svg_12" d="m4587.63041,2793.18814c-16.555,0 -24.023,-3.719 -33.479,-8.428c-3.902,-1.943 -7.994,-3.977 -12.72,-5.79l50.664,-133.282c3.943,-10.374 3.289,-21.98 -1.796,-31.844s-14.16,-17.13 -24.896,-19.935l-34.886,-9.115l0,-104.627c0,-21.958 -17.864,-39.822 -39.822,-39.822l-68.851,0l0,-38.714c0,-30.82 -25.074,-55.894 -55.894,-55.894l-38.639,0c-30.82,0 -55.894,25.074 -55.894,55.894l0,38.713l-68.851,0c-21.958,0 -39.822,17.864 -39.822,39.822l0,104.628l-34.886,9.115c-10.737,2.805 -19.812,10.071 -24.896,19.935s-5.74,21.47 -1.796,31.844l50.664,133.284c-4.724,1.813 -8.816,3.846 -12.717,5.789c-9.457,4.708 -16.926,8.428 -33.483,8.428c-8.284,0 -15,6.716 -15,15s6.716,15 15,15c23.612,0 35.96,-6.148 46.854,-11.572c9.457,-4.708 16.926,-8.428 33.483,-8.428s24.026,3.719 33.483,8.428c10.894,5.424 23.242,11.572 46.854,11.572c23.611,0 35.958,-6.148 46.853,-11.572c9.456,-4.708 16.925,-8.428 33.48,-8.428s24.023,3.719 33.479,8.428c10.894,5.424 23.241,11.572 46.852,11.572s35.958,-6.148 46.852,-11.572c9.456,-4.708 16.925,-8.428 33.48,-8.428s24.023,3.719 33.479,8.428c10.894,5.424 23.241,11.572 46.852,11.572c8.284,0 15,-6.716 15,-15s-6.717,-15.001 -15.001,-15.001zm-286.213,-391.557c0,-14.278 11.616,-25.894 25.894,-25.894l38.639,0c14.278,0 25.894,11.616 25.894,25.894l0,38.713l-90.427,0l0,-38.713zm-108.674,78.536c0,-5.416 4.406,-9.822 9.822,-9.822l288.129,0c5.416,0 9.822,4.406 9.822,9.822l0,96.789l-150.095,-39.218c-2.486,-0.649 -5.098,-0.649 -7.584,0l-150.095,39.218l0,-96.789l0.001,0zm267.704,304.594c-9.456,4.708 -16.925,8.427 -33.479,8.427s-24.023,-3.719 -33.479,-8.428c-10.894,-5.424 -23.241,-11.572 -46.852,-11.572s-35.958,6.148 -46.853,11.572c-9.456,4.708 -16.925,8.428 -33.48,8.428c-16.556,0 -24.026,-3.719 -33.482,-8.428c-10.894,-5.424 -23.242,-11.572 -46.854,-11.572c-1.447,0 -2.851,0.024 -4.216,0.068l-52.545,-138.228c-1.261,-3.317 -0.278,-6.083 0.42,-7.437s2.381,-3.759 5.814,-4.656l211.189,-55.181l211.189,55.182c3.433,0.896 5.116,3.301 5.814,4.655s1.681,4.12 0.42,7.438l-52.544,138.228c-1.363,-0.044 -2.765,-0.068 -4.21,-0.068c-23.611,-0.001 -35.958,6.148 -46.852,11.572z"/>
    <path stroke="null" id="svg_13" d="m4485.30741,2644.51814l-134.885,-35.244c-2.486,-0.649 -5.098,-0.649 -7.584,0l-134.885,35.244c-8.015,2.094 -12.815,10.29 -10.721,18.305s10.29,12.814 18.305,10.721l131.093,-34.253l131.093,34.253c1.271,0.333 2.547,0.491 3.802,0.491c6.659,0 12.741,-4.468 14.502,-11.212c2.095,-8.015 -2.705,-16.211 -10.72,-18.305z"/>
   </g>
  </g>
  <text stroke="null" font-style="normal" font-weight="normal" transform="rotate(-13 274.27734374999943,386.22570800781256) matrix(2.0957961082458496,0,0,2.3289446830749507,-213.710703789819,-499.38813457587565) " xml:space="preserve" text-anchor="start" font-family="Lucida Handwriting" font-size="25" id="svg_15" y="380.90398" x="180.92585" opacity="undefined" fill-opacity="null" stroke-opacity="null" stroke-dasharray="null" stroke-width="0" fill="#000000">The</text>
  <text stroke="null" font-style="normal" font-weight="normal" transform="rotate(7.819760322570801 421.38320922851534,383.5345458984372) matrix(2.0957961082458496,0,0,2.3289446830749507,-213.710703789819,-499.38813457587565) " xml:space="preserve" text-anchor="start" font-family="Lucida Handwriting" font-size="25" id="svg_16" y="390.33336" x="240.07185" opacity="undefined" fill-opacity="null" stroke-opacity="null" stroke-dasharray="null" stroke-width="0" fill="#000000">Flying</text>
  <text stroke="null" font-style="normal" font-weight="normal" transform="rotate(-7.6756744384765625 641.7124633789072,378.5404052734375) matrix(2.0957961082458496,0,0,2.3289446830749507,-213.710703789819,-499.38813457587565) " xml:space="preserve" text-anchor="start" font-family="Lucida Handwriting" font-size="25" id="svg_17" y="384.18647" x="335.09519" opacity="undefined" fill-opacity="null" stroke-opacity="null" stroke-dasharray="null" stroke-width="0" fill="#000000">Dutchman</text>
 </g>
</svg>