<svg id="Capa_1" enable-background="new 0 0 512.061 512.061" height="512" viewBox="0 0 512.061 512.061" width="512" xmlns="http://www.w3.org/2000/svg"><g><g><path d="m256.035 9.958c-136.58 0-247.3 110.72-247.3 247.3s110.72 247.3 247.3 247.3 247.3-110.72 247.3-247.3-110.72-247.3-247.3-247.3zm-1.55 444.49c-43.42-.33-83.5-14.71-115.92-38.8-.77-.56-.84-1.68-.17-2.35l2.006-2.006 4.41-21.69-5.534-19.276-32.296-2.414-6.986 6.986c-.67.67-1.79.6-2.35-.17-24.09-32.42-38.47-72.5-38.8-115.92-.85-109.68 89.06-199.59 198.74-198.74 43.42.33 83.5 14.71 115.92 38.8.77.56.84 1.68.17 2.35l-20.625 20.625-4.15 22.055 21.419 24.657 19.15-6.33 22.607-22.607c.67-.67 1.79-.6 2.35.17 24.09 32.42 38.47 72.5 38.8 115.92.849 109.68-89.061 199.59-198.741 198.74z" fill="#f37c7c"/><path d="m361.79 257.741v-77.13c0-10.66-4.68-20.78-12.8-27.69l-55.43-47.18v-58.55h-75.06v58.55l-43.98 36.79c-1.803 1.508-3.509 3.107-5.13 4.776v85.862l3.863 98.338-22.983 17.264v133.15c0 12.5 10.14 22.64 22.64 22.64h166.24c12.5 0 22.64-10.14 22.64-22.64v-10.52l-26.164-43.965v-139.287z" fill="#ade194"/><g id="XMLID_140_"><g><path d="m218.5 47.185v58.55l-43.98 36.79c-1.803 1.508-3.509 3.107-5.13 4.776v128.569l-7.096 63.921-12.024 8.974v133.15c0 12.504 10.136 22.64 22.64 22.64h24.027c-.457-1.793-.701-3.67-.701-5.605v-287.51c0-20.03 8.88-39.03 24.25-51.88l22.576-18.885c13.565-11.348 21.404-28.124 21.404-45.81 0-4.24 3.437-7.677 7.677-7.677h20.413c.391-.391.614-.614 1.005-1.005v-21.964-17.028-.006z" fill="#97da7b"/><path d="m349.305 258.883-176.575-98.48-19.109 13.018c-2.2 6.71-3.35 13.78-3.35 20.99v119.78l44.392 42.841 143.998 85.766 23.13-6.567v-143.32z" fill="#fef0ae"/><g fill="#fee97d"><path d="m172.73 160.403-19.109 13.018c-2.2 6.71-3.35 13.78-3.35 20.99v119.78l44.392 42.841 1.575.938v-146.524c0-11.731 3.066-23.097 8.678-33.093z"/><path d="m361.79 436.231v35.17l-211.52-122.63v-34.58z"/><path d="m361.79 257.741v35.17l-208.16-119.49h-.01c3.17-9.74 8.54-18.69 15.77-26.12z"/></g></g></g><path d="m292.556 67.187h-74.051c-9.413 0-17.044-7.631-17.044-17.044v-25.599c0-9.413 7.631-17.044 17.044-17.044h74.051c9.413 0 17.044 7.631 17.044 17.044v25.599c0 9.413-7.631 17.044-17.044 17.044z" fill="#e8ad8c"/><path d="m169.39 147.301c-7.23 7.43-12.6 16.38-15.77 26.12h.01l43.863 25.179c1.97-10.174 6.237-19.757 12.486-28z" fill="#fee45a"/><path d="m150.27 314.191v34.58l45.967 26.649v-34.708z" fill="#fee45a"/><path d="m389.468 162.225-36.418-40.381-246.069 246.068 33.421 43.38z" fill="#f37c7c"/></g><g><path d="m463.358 109.123c-30.387-42.448-72.306-74.167-121.226-91.73-2.296-.823-4.852-.48-6.85.925-1.997 1.405-3.185 3.693-3.185 6.134 0 .07.001.167.004.252.075 3.577 2.653 6.538 6.053 7.202 45.569 16.607 84.628 46.308 113.006 85.949 29.223 40.822 44.669 89.028 44.669 139.407 0 80.945-40.435 155.881-108.165 200.452-3.46 2.277-4.419 6.928-2.142 10.388 1.441 2.19 3.833 3.378 6.272 3.378 1.415 0 2.846-.4 4.116-1.236 71.96-47.355 114.92-126.975 114.92-212.983 0-53.529-16.415-104.755-47.472-148.138z"/><path d="m124.395 457.712c-67.729-44.57-108.165-119.505-108.165-200.451 0-50.198 15.344-98.263 44.374-138.999 28.409-39.866 67.63-69.746 113.421-86.409 3.892-1.417 5.899-5.72 4.483-9.613-1.417-3.893-5.72-5.901-9.613-4.483-48.657 17.707-90.328 49.45-120.507 91.8-30.85 43.292-47.158 94.367-47.158 147.704 0 86.008 42.96 165.628 114.918 212.982 1.271.836 2.701 1.236 4.116 1.236 2.439 0 4.831-1.188 6.272-3.378 2.278-3.461 1.319-8.112-2.141-10.389z"/><path d="m86.209 143.312c-23.133 34.301-35.192 74.262-34.873 115.562.338 43.706 14.266 85.316 40.279 120.332 1.57 2.114 3.978 3.437 6.605 3.629.223.016.445.024.666.024 2.396 0 4.702-.948 6.409-2.655l96.55-96.55c2.929-2.929 2.929-7.678 0-10.606-2.929-2.929-7.678-2.929-10.606 0l-33.467 33.467v-112.1c0-3.219.264-6.401.763-9.527l76.786 44.077-21.482 21.482c-2.929 2.929-2.929 7.678 0 10.606 1.464 1.464 3.384 2.197 5.303 2.197s3.839-.732 5.303-2.197l154.527-154.527c1.865-1.865 2.824-4.443 2.631-7.074-.192-2.627-1.515-5.035-3.628-6.606-12.708-9.44-26.496-17.394-40.982-23.641-3.802-1.638-8.216.113-9.856 3.917-1.641 3.804.113 8.216 3.917 9.857 11.316 4.88 22.175 10.885 32.361 17.892l-29.145 29.145-33.214-27.779v-29.069c9.357-3.465 16.044-12.478 16.044-23.025v-25.599c0-13.533-11.011-24.544-24.544-24.544h-74.051c-13.534 0-24.544 11.011-24.544 24.544v25.599c0 10.918 7.168 20.191 17.044 23.368v28.726l-41.3 34.542c-17.116 14.314-26.933 35.322-26.933 57.636v127.1l-43.133 43.133c-21.518-31.238-33.008-67.699-33.303-105.89-.296-38.258 10.876-75.278 32.309-107.058 20.913-31.01 50.097-55.024 84.397-69.446 3.818-1.605 5.612-6.002 4.007-9.82s-6-5.614-9.821-4.007c-36.997 15.554-68.47 41.449-91.019 74.885zm76.702 26.792c2.091-4.731 4.792-9.185 8.053-13.253l86.702 49.77-11.356 11.356zm46.049-145.56c0-5.263 4.282-9.544 9.544-9.544h74.051c5.263 0 9.544 4.282 9.544 9.544v25.599c0 5.263-4.282 9.544-9.544 9.544h-74.051c-5.263 0-9.544-4.282-9.544-9.544zm14.356 86.951c1.704-1.425 2.688-3.532 2.688-5.753v-31.054h60.051v31.054c0 2.221.984 4.328 2.688 5.753l34.878 29.17-54.968 54.968-86.541-49.677z"/><path d="m434.992 356.333c17.106-30.695 26.004-65.51 25.733-100.681-.049-6.393-.408-12.908-1.066-19.367-.42-4.121-4.106-7.121-8.222-6.701-4.121.42-7.121 4.101-6.701 8.222.611 5.994.943 12.037.989 17.961.251 32.581-7.991 64.831-23.835 93.264-13.074 23.459-31.109 44.01-52.601 60.114v-214.73c0-.452-.007-.917-.017-1.39l43.15-43.15c12.123 17.605 21.092 36.943 26.694 57.575 1.085 3.998 5.205 6.358 9.203 5.272 3.998-1.085 6.358-5.206 5.272-9.203-6.698-24.666-17.85-47.613-33.146-68.205-1.57-2.112-3.978-3.435-6.605-3.627-2.634-.187-5.209.766-7.074 2.631l-273.679 273.678c-1.865 1.865-2.824 4.443-2.631 7.074.192 2.628 1.515 5.036 3.629 6.607 2.831 2.103 5.742 4.145 8.687 6.106v54.138c0 16.62 13.521 30.141 30.141 30.141h166.235c16.62 0 30.141-13.521 30.141-30.141v-54.402c27.148-18.159 49.819-42.683 65.703-71.186zm-137.404-91.625 56.7 32.548v126.019l-136.761-78.505zm22.344-22.344 34.356 19.721v17.875l-45.712-26.24zm34.357 2.425-23.368-13.414 23.368-23.368zm-15.141 252.272h-166.235c-8.349 0-15.141-6.792-15.141-15.141v-77.396l26.422-26.422 51.104 29.336c1.177.676 2.46.997 3.727.997 2.598 0 5.125-1.353 6.511-3.768 2.062-3.592.822-8.176-2.771-10.238l-47.584-27.315 11.356-11.356 147.75 84.813v17.875l-82.805-47.533c-3.591-2.062-8.176-.822-10.238 2.771-2.062 3.592-.822 8.176 2.771 10.238l90.273 51.82v6.178c.001 8.349-6.791 15.141-15.14 15.141z"/></g></g></svg>