<?xml version="1.0" encoding="iso-8859-1"?>
<!-- Generator: Adobe Illustrator 19.0.0, SVG Export Plug-In . SVG Version: 6.00 Build 0)  -->
<svg version="1.1" id="Capa_1" xmlns="http://www.w3.org/2000/svg" xmlns:xlink="http://www.w3.org/1999/xlink" x="0px" y="0px"
	 viewBox="0 0 475.482 475.482" style="enable-background:new 0 0 475.482 475.482;" xml:space="preserve">
<path style="fill:#FAC000;" d="M165.905,277.123v-54.24c-0.002-4.993,4.044-9.041,9.037-9.043c0.081,0,0.162,0.001,0.243,0.003
	h125.44c4.991-0.133,9.144,3.806,9.277,8.797c0.002,0.081,0.003,0.162,0.003,0.243v54.24H165.905z"/>
<path style="fill:#C97943;" d="M181.265,64.243h113.2v30.08h-113.2V64.243z"/>
<g>
	<path style="fill:#FAC000;" d="M175.185,402.643c-4.991,0.133-9.144-3.806-9.277-8.797c-0.002-0.081-0.003-0.162-0.003-0.243
		v-54.24h144v54.24c0,4.993-4.047,9.04-9.04,9.04c0,0,0,0,0,0H175.185z"/>
	<path style="fill:#FAC000;" d="M166.145,277.123h143.52v62.32h-143.52V277.123z"/>
</g>
<path style="fill:#C97943;" d="M211.025,64.243l-13.6-56.32h80.96l-13.6,56.32H211.025z"/>
<path style="fill:#A5AE38;" d="M170.385,467.763c-20.16,0-43.6-11.84-43.6-45.12v-3.12c0-52,0-178.88,0-234.64
	c0-21.84,22.32-48.88,72-59.92v-30.64h78.8v30.64c49.36,11.12,72,38.08,72,59.92v234.64v3.12c0,33.28-23.52,45.12-43.6,45.12
	H170.385z M175.185,213.843c-4.991-0.133-9.144,3.806-9.277,8.797c-0.002,0.081-0.003,0.162-0.003,0.243v170.72
	c0,4.993,4.047,9.04,9.04,9.04l0,0h125.68c4.991,0.133,9.144-3.806,9.277-8.797c0.002-0.081,0.003-0.162,0.003-0.243v-170.72
	c0.002-4.993-4.044-9.041-9.037-9.043c-0.081,0-0.162,0.001-0.243,0.003H175.185z"/>
<g>
	<path style="fill:#281211;" d="M285.265,118.643v-16h9.2c4.418,0,8-3.582,8-8v-30.4c0-4.418-3.582-8-8-8h-19.52l10.96-46.4
		c1.018-4.299-1.642-8.61-5.942-9.628c-0.674-0.16-1.366-0.231-2.058-0.212h-80.48c-4.416,0.146-7.877,3.844-7.731,8.26
		c0.018,0.532,0.088,1.062,0.211,1.58l11.2,46.48h-19.84c-4.418,0-8,3.582-8,8v30.08c0,4.418,3.582,8,8,8h9.2v16
		c-49.28,12.96-72,42.16-72,66.16v237.76c-1.877,27.418,18.828,51.165,46.245,53.042c1.782,0.122,3.57,0.148,5.355,0.078h135.36
		c27.461,1.077,50.595-20.31,51.673-47.771c0.069-1.756,0.045-3.515-0.073-5.269c0-1.68,0-170.96,0-237.76
		C356.945,160.883,334.625,131.603,285.265,118.643L285.265,118.643z M268.225,15.923l-9.76,40h-41.12l-9.76-40H268.225z
		 M189.345,86.323v-14.08h97.2v14.08h-97.28H189.345z M341.345,422.323c1.701,18.745-12.115,35.32-30.86,37.021
		c-1.576,0.143-3.16,0.176-4.74,0.099h-135.36c-18.8,0.917-34.783-13.581-35.699-32.38c-0.077-1.58-0.044-3.164,0.099-4.74
		c0-1.68,0-170.88,0-237.68c0-18.08,20.64-42.08,65.52-52.16c3.721-0.838,6.333-4.187,6.24-8v-22.16h62.8v22.64
		c-0.093,3.813,2.519,7.162,6.24,8c44.88,10.08,65.44,34.08,65.52,52.16c0.32,66.64-0.08,235.84-0.08,237.52L341.345,422.323z"/>
	<path style="fill:#281211;" d="M300.625,205.843h-125.44c-9.455-0.088-17.191,7.504-17.279,16.959c0,0.027,0,0.054-0.001,0.081
		v170.72c0.044,9.393,7.647,16.996,17.04,17.04h125.68c9.455,0.088,17.191-7.504,17.279-16.959c0-0.027,0-0.054,0.001-0.081v-170.72
		c-0.044-9.455-7.744-17.084-17.199-17.041C300.679,205.842,300.652,205.843,300.625,205.843z M301.905,393.603
		c0,0.574-0.466,1.04-1.04,1.04c0,0,0,0,0,0h-125.68c-0.574,0-1.04-0.466-1.04-1.04l0,0v-46.24h127.76V393.603z M301.905,331.363
		h-128v-46.24h128V331.363z M301.905,269.043h-128v-46.16c0-0.574,0.466-1.04,1.04-1.04h125.68c0.574,0,1.04,0.466,1.04,1.04l0,0
		L301.905,269.043z"/>
</g>
<g>
</g>
<g>
</g>
<g>
</g>
<g>
</g>
<g>
</g>
<g>
</g>
<g>
</g>
<g>
</g>
<g>
</g>
<g>
</g>
<g>
</g>
<g>
</g>
<g>
</g>
<g>
</g>
<g>
</g>
</svg>
