<svg height="512" viewBox="0 0 512 512" width="512" xmlns="http://www.w3.org/2000/svg"><g id="flat"><rect fill="#e2e2e2" height="216" rx="12" width="112" x="288" y="204"/><path d="m388 416h-88a12 12 0 0 1 -12-12v68a16 16 0 0 0 16 16h80a16 16 0 0 0 16-16v-68a12 12 0 0 1 -12 12z" fill="#961b20"/><path d="m381.618 146.214-4.018-3.014a24 24 0 0 1 -9.6-19.2v-36h-48v36a24 24 0 0 1 -9.6 19.2l-4.018 3.014a45.952 45.952 0 0 0 -18.382 36.763v37.023a12 12 0 0 1 12-12h88a12 12 0 0 1 12 12v-37.023a45.952 45.952 0 0 0 -18.382-36.763z" fill="#961b20"/><path d="m344 280a8 8 0 0 1 -8-8v-12.687a35.082 35.082 0 0 1 10.343-24.97 8 8 0 0 1 11.314 11.314 19.185 19.185 0 0 0 -5.657 13.656v12.687a8 8 0 0 1 -8 8z" fill="#027e2a"/><path d="m323.708 24h40.584a6 6 0 0 1 5.366 3.317l.528 1.055a26 26 0 0 1 0 23.256l-2.186 4.372v32h-48v-32l-2.186-4.372a26 26 0 0 1 0-23.256l.528-1.055a6 6 0 0 1 5.366-3.317z" fill="#ea9d2d"/><circle cx="330" cy="278" fill="#954872" r="16"/><ellipse cx="341" cy="278" fill="#7a4771" rx="5" ry="11.62"/><ellipse cx="341" cy="278" fill="#7a4771" rx="5" ry="11.62"/><path d="m320 88h48v32h-48z" fill="#fbb540"/><g fill="#e2e2e2"><path d="m142.347 456h60a26 26 0 0 1 26 26v6a0 0 0 0 1 0 0h-112a0 0 0 0 1 0 0v-6a26 26 0 0 1 26-26z"/><path d="m212.347 144h-80l-9.395 72h98.79z"/><path d="m146.13 348.457a25.991 25.991 0 0 1 10.217 20.621v86.922h32v-86.922a25.989 25.989 0 0 1 10.218-20.621 107.718 107.718 0 0 1 -52.435 0z"/></g><path d="m231.836 293.358-10.094-77.358h-98.79l-10.094 77.358a54.45 54.45 0 0 0 29.342 52.589 26.271 26.271 0 0 1 3.928 2.51 107.718 107.718 0 0 0 52.435 0 26.22 26.22 0 0 1 3.928-2.51 54.449 54.449 0 0 0 29.345-52.589z" fill="#961b20"/><path d="m288 376h112v16h-112z" fill="#954872"/><path d="m368 192a8 8 0 0 1 -8-8 17.792 17.792 0 0 0 -9.888-16l-1.69-.845a8 8 0 0 1 7.156-14.31l1.69.844a33.7 33.7 0 0 1 18.732 30.311 8 8 0 0 1 -8 8z" fill="#b92127"/><circle cx="358" cy="278" fill="#954872" r="16"/><path d="m363.31 293.09a15.836 15.836 0 0 1 -5.31.91 16 16 0 0 1 -15.82-13.59 17.992 17.992 0 0 1 21.13 12.68z" fill="#954872"/><circle cx="342" cy="300" fill="#bb5a8f" r="16"/><path d="m156.347 438.916h32v17.084h-32z" fill="#cbcbcb"/></g></svg>